<svg width="167" height="57" viewBox="0 0 167 57" fill="none" xmlns="http://www.w3.org/2000/svg">
<path d="M27.8867 34.2188C28.2383 33.9062 28.5703 33.7305 28.8828 33.6914C29.1953 33.6523 29.4297 33.7305 29.5859 33.9258C29.7812 34.082 29.8398 34.3359 29.7617 34.6875C29.7227 35 29.4883 35.3906 29.0586 35.8594C28.1602 36.7578 27.1836 37.7344 26.1289 38.7891C25.0742 39.8047 23.8828 40.7812 22.5547 41.7188C22.8672 42.3047 23.2188 42.832 23.6094 43.3008C23.9219 43.7305 24.293 44.1602 24.7227 44.5898C25.1523 44.9805 25.6406 45.2734 26.1875 45.4688C26.1094 45.625 25.9336 45.7812 25.6602 45.9375C25.3867 46.0938 25.0938 46.2695 24.7812 46.4648C24.4297 46.6602 24.0391 46.875 23.6094 47.1094C22.5547 47.6172 21.6758 47.8906 20.9727 47.9297C20.2695 47.9688 19.6836 47.8711 19.2148 47.6367C18.7461 47.4023 18.375 47.0508 18.1016 46.582C17.8672 46.1133 17.6719 45.625 17.5156 45.1172C17.4766 45.0781 17.457 44.9805 17.457 44.8242C17.457 44.7461 17.4375 44.6875 17.3984 44.6484C16.1484 45.1562 14.8398 45.5664 13.4727 45.8789C12.1055 46.1914 10.6797 46.3477 9.19531 46.3477C7.32031 46.3477 5.79688 45.9766 4.625 45.2344C3.49219 44.4922 2.65234 43.5742 2.10547 42.4805C1.51953 41.3867 1.16797 40.2148 1.05078 38.9648C0.933594 37.6758 0.972656 36.5039 1.16797 35.4492C1.51953 33.2617 2.63281 30.918 4.50781 28.418C6.42188 25.918 8.96094 23.125 12.125 20.0391C12.3203 19.8438 12.5352 19.6484 12.7695 19.4531C13.0039 19.2578 13.2188 19.0625 13.4141 18.8672C13.4141 17.8125 13.4336 16.8164 13.4727 15.8789C13.5508 14.9023 13.6289 13.9648 13.707 13.0664C13.7461 12.7148 13.7852 12.3828 13.8242 12.0703C13.8633 11.7188 13.9219 11.3672 14 11.0156C14.3906 9.02344 15.0156 7.36328 15.875 6.03516C16.7344 4.66797 17.6719 3.57422 18.6875 2.75391C19.7422 1.89453 20.7578 1.28906 21.7344 0.9375C22.75 0.585938 23.6094 0.410156 24.3125 0.410156C24.7812 0.410156 25.2891 0.488281 25.8359 0.644531C26.4219 0.800781 26.9297 1.07422 27.3594 1.46484C27.8281 1.85547 28.1797 2.38281 28.4141 3.04688C28.6484 3.71094 28.6875 4.55078 28.5312 5.56641C28.375 6.42578 28.1211 7.26562 27.7695 8.08594C27.457 8.90625 26.9492 9.82422 26.2461 10.8398C25.582 11.8164 24.6641 12.9492 23.4922 14.2383C22.3594 15.5273 20.9141 17.0703 19.1562 18.8672C19 19.0234 18.8438 19.1602 18.6875 19.2773C18.5703 19.3945 18.4531 19.5312 18.3359 19.6875C18.5312 23.2812 18.9414 26.7383 19.5664 30.0586C20.2305 33.3789 20.8555 36.2305 21.4414 38.6133C21.5195 38.9258 21.5781 39.1406 21.6172 39.2578C22.4375 38.75 23.1992 38.2422 23.9023 37.7344C24.6055 37.1875 25.2109 36.6797 25.7188 36.2109C26.2656 35.7422 26.7148 35.332 27.0664 34.9805C27.457 34.6289 27.7305 34.375 27.8867 34.2188ZM11.6562 42.3633C12.5156 42.3633 13.3359 42.3047 14.1172 42.1875C14.8984 42.0312 15.6797 41.8555 16.4609 41.6602C16.1094 40.4883 15.7188 39.043 15.2891 37.3242C14.8984 35.6055 14.5469 33.6719 14.2344 31.5234C14.0781 30.3906 13.9414 29.2578 13.8242 28.125C13.7461 26.9922 13.668 25.8789 13.5898 24.7852C9.09766 29.8242 6.61719 33.7109 6.14844 36.4453C6.07031 36.9922 6.07031 37.6172 6.14844 38.3203C6.22656 38.9844 6.46094 39.6289 6.85156 40.2539C7.24219 40.8398 7.80859 41.3477 8.55078 41.7773C9.33203 42.168 10.3672 42.3633 11.6562 42.3633ZM18.7461 8.26172C18.4727 10.1758 18.2969 12.1875 18.2188 14.2969C20.0938 12.4609 21.6953 10.8203 23.0234 9.375C24.3516 7.92969 25.1133 6.64063 25.3086 5.50781C25.3867 4.96094 25.3086 4.43359 25.0742 3.92578C24.8789 3.37891 24.4883 3.10547 23.9023 3.10547C23.2773 3.10547 22.6719 3.26172 22.0859 3.57422C21.5 3.88672 20.9727 4.29688 20.5039 4.80469C20.0742 5.27344 19.7031 5.82031 19.3906 6.44531C19.0781 7.03125 18.8633 7.63672 18.7461 8.26172ZM41.3047 25.0781C39.3125 25.0781 37.6914 24.8633 36.4414 24.4336C35.2305 24.0039 34.4102 23.457 33.9805 22.793C33.7852 22.5195 33.6094 22.1094 33.4531 21.5625C33.2969 21.0156 33.3555 20.4102 33.6289 19.7461C34.1758 20.1758 34.7617 20.5078 35.3867 20.7422C36.0508 20.9375 36.6562 21.0742 37.2031 21.1523C37.8672 21.2695 38.5117 21.3281 39.1367 21.3281C40.3086 21.3281 41.4414 21.2305 42.5352 21.0352C43.668 20.8398 44.7812 20.5664 45.875 20.2148C46.3438 17.8711 46.793 15.7617 47.2227 13.8867C47.6914 12.0117 48.2188 10.4883 48.8047 9.31641C49.4297 8.02734 50.0742 6.875 50.7383 5.85938C51.4414 4.80469 52.2031 3.92578 53.0234 3.22266C53.8828 2.48047 54.8203 1.91406 55.8359 1.52344C56.8516 1.13281 58.0234 0.9375 59.3516 0.9375C60.3281 0.9375 61.0898 1.13281 61.6367 1.52344C62.2227 1.91406 62.6523 2.40234 62.9258 2.98828C63.2383 3.57422 63.4141 4.21875 63.4531 4.92188C63.5312 5.58594 63.5703 6.21094 63.5703 6.79688C63.5703 8.08594 63.2578 9.49219 62.6328 11.0156C62.0078 12.5391 61.1289 14.043 59.9961 15.5273C58.8633 17.0117 57.4961 18.418 55.8945 19.7461C54.332 21.0742 52.5742 22.168 50.6211 23.0273C49.957 25.6055 49.293 28.1641 48.6289 30.7031C48.0039 33.2031 47.3789 35.2734 46.7539 36.9141C46.207 38.4375 45.5039 40.1367 44.6445 42.0117C43.8242 43.8867 42.8086 45.6836 41.5977 47.4023C42.3398 47.8711 43.082 48.3594 43.8242 48.8672C44.6055 49.375 45.3867 49.8242 46.168 50.2148C46.9492 50.6445 47.7305 50.9961 48.5117 51.2695C49.332 51.543 50.1914 51.6797 51.0898 51.6797C52.0273 51.6406 52.9453 51.5039 53.8438 51.2695C54.625 51.0742 55.4453 50.7422 56.3047 50.2734C57.1641 49.8438 57.9648 49.2188 58.707 48.3984C58.9805 48.8672 59.0586 49.5703 58.9414 50.5078C58.8633 51.4453 58.5703 52.3828 58.0625 53.3203C57.5547 54.2578 56.832 55.0781 55.8945 55.7812C54.957 56.4844 53.7852 56.8359 52.3789 56.8359C50.8945 56.8359 49.5078 56.6211 48.2188 56.1914C46.9297 55.8008 45.7188 55.3125 44.5859 54.7266C43.4531 54.1406 42.3789 53.4961 41.3633 52.793C40.3867 52.1289 39.4688 51.5039 38.6094 50.918C37.4375 52.0508 36.1484 52.9688 34.7422 53.6719C33.3359 54.375 31.7734 54.7266 30.0547 54.7266C28.6875 54.7266 27.5938 54.3359 26.7734 53.5547C25.9531 52.8125 25.582 51.7969 25.6602 50.5078C25.6992 50.0391 25.8359 49.4727 26.0703 48.8086C26.3047 48.1836 26.7539 47.5781 27.418 46.9922C28.043 46.4062 28.9219 45.8984 30.0547 45.4688C31.1875 45.0781 32.6523 44.8828 34.4492 44.8828C35.1133 44.8828 35.7383 44.9414 36.3242 45.0586C36.9492 45.2148 37.5547 45.3906 38.1406 45.5859C38.5703 44.8047 39 43.9062 39.4297 42.8906C39.8594 41.875 40.3281 40.7227 40.8359 39.4336C41.7344 36.9727 42.5156 34.5117 43.1797 32.0508C43.8438 29.5508 44.4102 27.1289 44.8789 24.7852C44.332 24.9023 43.7461 24.9805 43.1211 25.0195C42.5352 25.0586 41.9297 25.0781 41.3047 25.0781ZM31.5781 51.5625C32.0859 51.3672 32.6719 51.1719 33.3359 50.9766C34 50.7812 34.7617 50.2344 35.6211 49.3359C35.0352 49.1406 34.5859 49.043 34.2734 49.043C32.8672 49.043 31.8516 49.2383 31.2266 49.6289C30.5625 50.0586 30.2305 50.4688 30.2305 50.8594C30.2305 51.1328 30.3477 51.3281 30.582 51.4453C30.8164 51.6016 31.1484 51.6406 31.5781 51.5625ZM53.7266 10.7812C53.5312 11.3672 53.2773 12.2266 52.9648 13.3594C52.6523 14.4922 52.3203 15.8008 51.9688 17.2852C54.0781 15.918 55.7578 14.3555 57.0078 12.5977C58.2969 10.8398 58.9414 9.08203 58.9414 7.32422C58.9414 6.26953 58.6289 5.74219 58.0039 5.74219C57.457 5.74219 56.7539 6.17188 55.8945 7.03125C55.0352 7.85156 54.3125 9.10156 53.7266 10.7812ZM78.5117 35.6836C78.1211 37.168 77.5938 38.5547 76.9297 39.8438C76.2656 41.1328 75.4648 42.2461 74.5273 43.1836C73.6289 44.1211 72.5938 44.8438 71.4219 45.3516C70.2891 45.8984 69.0391 46.1719 67.6719 46.1719C66.0703 46.1719 64.8008 45.8203 63.8633 45.1172C62.9648 44.4531 62.2812 43.6133 61.8125 42.5977C61.3828 41.582 61.1289 40.4688 61.0508 39.2578C60.9336 38.0469 60.875 36.9141 60.875 35.8594C60.875 35.1172 60.9727 34.2969 61.168 33.3984C61.3242 32.5 61.5586 31.582 61.8711 30.6445C62.1836 29.707 62.5742 28.7695 63.043 27.832C63.5508 26.8945 64.1367 26.0352 64.8008 25.2539C65.0352 24.5898 65.3867 24.0039 65.8555 23.4961C66.3633 22.9883 66.9297 22.5781 67.5547 22.2656C68.2188 21.9141 68.9219 21.6602 69.6641 21.5039C70.4062 21.3086 71.1289 21.2109 71.832 21.2109C71.9492 21.2109 72.0469 21.2305 72.125 21.2695C72.2422 21.3086 72.3594 21.3477 72.4766 21.3867C72.9844 21.4258 73.6094 21.6211 74.3516 21.9727C75.1328 22.3242 75.875 22.8516 76.5781 23.5547C77.3203 24.2578 77.9453 25.1562 78.4531 26.25C78.9609 27.3047 79.2148 28.5938 79.2148 30.1172C79.2148 30.4297 79.1953 30.8203 79.1562 31.2891C79.1172 31.7188 79.0781 32.0898 79.0391 32.4023C79.9375 32.0508 80.875 31.6211 81.8516 31.1133C82.8281 30.6055 83.7656 30.0781 84.6641 29.5312C85.6016 28.9453 86.4609 28.3594 87.2422 27.7734C88.0234 27.1875 88.6484 26.6602 89.1172 26.1914C89.5078 25.8398 89.8398 25.6445 90.1133 25.6055C90.3867 25.5664 90.582 25.6445 90.6992 25.8398C90.8164 26.0352 90.8359 26.3086 90.7578 26.6602C90.6797 27.0117 90.4648 27.4023 90.1133 27.832C89.918 28.0664 89.4102 28.5352 88.5898 29.2383C87.8086 29.9414 86.8711 30.7031 85.7773 31.5234C84.6836 32.3438 83.4922 33.1445 82.2031 33.9258C80.9141 34.707 79.6836 35.293 78.5117 35.6836ZM68.6094 26.7773C68.4922 27.1289 68.4336 27.5 68.4336 27.8906C68.4336 28.5156 68.4727 29.1797 68.5508 29.8828C68.6289 30.5469 68.8242 31.1523 69.1367 31.6992C69.4492 32.2461 69.9375 32.7148 70.6016 33.1055C71.3047 33.457 72.2617 33.6328 73.4727 33.6328C73.668 33.6328 73.8633 33.6328 74.0586 33.6328C74.2539 33.5938 74.4492 33.5547 74.6445 33.5156C74.7617 33.0078 74.8594 32.5586 74.9375 32.168C75.0547 31.7383 75.1133 31.3672 75.1133 31.0547C75.1914 30.3125 75.1914 29.5508 75.1133 28.7695C75.0352 27.9883 74.8789 27.2852 74.6445 26.6602C74.4492 25.9961 74.1758 25.4688 73.8242 25.0781C73.5117 24.6484 73.1211 24.4336 72.6523 24.4336C71.9102 24.4336 71.1875 24.6484 70.4844 25.0781C69.8203 25.4688 69.1953 26.0352 68.6094 26.7773ZM64.8594 37.0898C64.8594 37.793 64.8984 38.4961 64.9766 39.1992C65.0547 39.8633 65.2109 40.4688 65.4453 41.0156C65.6797 41.5234 65.9922 41.9531 66.3828 42.3047C66.7734 42.6172 67.2812 42.7734 67.9062 42.7734C68.6094 42.7734 69.2539 42.6172 69.8398 42.3047C70.4258 41.9531 70.9531 41.5234 71.4219 41.0156C71.8906 40.4688 72.3008 39.8633 72.6523 39.1992C73.043 38.4961 73.375 37.7734 73.6484 37.0312C73.375 37.0703 73.1016 37.1094 72.8281 37.1484C72.5938 37.1484 72.3203 37.1484 72.0078 37.1484C70.5234 37.1484 69.2344 36.7188 68.1406 35.8594C67.0859 34.9609 66.2656 33.8281 65.6797 32.4609C65.4453 33.2812 65.25 34.082 65.0938 34.8633C64.9375 35.6445 64.8594 36.3867 64.8594 37.0898ZM101.949 34.5703C100.934 36.0547 99.8789 37.5 98.7852 38.9062C97.7305 40.3125 96.6953 41.582 95.6797 42.7148C94.7031 43.8086 93.7852 44.6875 92.9258 45.3516C92.1055 46.0547 91.4414 46.4062 90.9336 46.4062C89.7227 46.4062 88.7266 45.8398 87.9453 44.707C87.2031 43.5352 86.6172 42.1094 86.1875 40.4297C85.7969 38.7109 85.543 36.8945 85.4258 34.9805C85.3477 33.0273 85.3672 31.2891 85.4844 29.7656C85.6406 28.2422 85.8164 27.0312 86.0117 26.1328C86.207 25.1953 86.4414 24.4727 86.7148 23.9648C87.0273 23.457 87.3789 23.0859 87.7695 22.8516C88.1992 22.6172 88.7266 22.4219 89.3516 22.2656C89.625 22.1875 89.9375 22.1289 90.2891 22.0898C90.6406 22.0508 90.9531 22.0703 91.2266 22.1484C91.5391 22.1875 91.7734 22.3047 91.9297 22.5C92.0859 22.6953 92.1055 22.9883 91.9883 23.3789C91.9102 23.7305 91.7734 24.2578 91.5781 24.9609C91.4219 25.625 91.2461 26.3867 91.0508 27.2461C90.8555 28.1055 90.6602 29.0039 90.4648 29.9414C90.3086 30.8789 90.1914 31.7773 90.1133 32.6367C89.9961 34.1211 89.9961 35.4297 90.1133 36.5625C90.2305 37.6562 90.4062 38.5938 90.6406 39.375C90.875 40.1172 91.1289 40.6836 91.4023 41.0742C91.6758 41.4648 91.8906 41.6602 92.0469 41.6602C92.2422 41.6602 92.5938 41.4062 93.1016 40.8984C93.6484 40.3516 94.2539 39.6484 94.918 38.7891C95.6211 37.9297 96.3438 36.9336 97.0859 35.8008C97.8672 34.668 98.5898 33.4961 99.2539 32.2852C99.0195 31.6602 98.9219 30.918 98.9609 30.0586C99.0781 28.7305 99.3711 27.5391 99.8398 26.4844C100.309 25.3906 100.836 24.4727 101.422 23.7305C102.047 22.9883 102.672 22.4219 103.297 22.0312C103.961 21.6016 104.547 21.3867 105.055 21.3867C106.07 21.3867 106.695 21.6602 106.93 22.207C107.203 22.7148 107.301 23.2422 107.223 23.7891C107.145 24.6094 106.773 25.7422 106.109 27.1875C105.484 28.5938 104.664 30.1367 103.648 31.8164C103.844 31.8945 104.059 31.9727 104.293 32.0508C104.527 32.1289 104.801 32.168 105.113 32.168C106.441 32.168 107.633 32.0117 108.688 31.6992C109.781 31.3867 110.719 31.0156 111.5 30.5859C112.32 30.1562 113.004 29.707 113.551 29.2383C114.137 28.7305 114.605 28.3203 114.957 28.0078C115.191 27.7734 115.426 27.6562 115.66 27.6562C115.895 27.6562 116.09 27.7148 116.246 27.832C116.402 27.9492 116.48 28.125 116.48 28.3594C116.48 28.5938 116.363 28.8477 116.129 29.1211C114.723 30.8398 113.004 32.2266 110.973 33.2812C108.98 34.3359 106.637 34.8633 103.941 34.8633C103.707 34.8633 103.414 34.8438 103.062 34.8047C102.711 34.7656 102.34 34.6875 101.949 34.5703ZM136.988 32.8125C135.816 34.5312 134.488 36.2109 133.004 37.8516C131.52 39.4531 129.938 40.8984 128.258 42.1875C126.617 43.4375 124.918 44.4531 123.16 45.2344C121.441 46.0156 119.762 46.4062 118.121 46.4062C117.262 46.4062 116.324 46.1914 115.309 45.7617C114.332 45.3711 113.434 44.7461 112.613 43.8867C111.793 43.0273 111.129 41.9141 110.621 40.5469C110.152 39.1797 110.016 37.5195 110.211 35.5664C110.367 33.9648 110.855 32.2852 111.676 30.5273C112.535 28.7305 113.57 27.0898 114.781 25.6055C116.031 24.1211 117.418 22.8906 118.941 21.9141C120.504 20.9375 122.066 20.4492 123.629 20.4492C125.113 20.4492 126.188 20.8203 126.852 21.5625C127.516 22.3047 127.809 23.2227 127.73 24.3164C127.613 25.5273 127.262 26.6406 126.676 27.6562C126.129 28.6719 125.465 29.5898 124.684 30.4102C123.902 31.2305 123.062 31.9727 122.164 32.6367C121.305 33.3008 120.484 33.9062 119.703 34.4531C118.844 35.0391 118.023 35.6055 117.242 36.1523C116.461 36.6602 115.777 37.1289 115.191 37.5586C115.23 38.5352 115.406 39.3555 115.719 40.0195C116.031 40.6836 116.422 41.2305 116.891 41.6602C117.359 42.0508 117.887 42.3438 118.473 42.5391C119.098 42.6953 119.723 42.7734 120.348 42.7734C121.676 42.7734 123.062 42.3633 124.508 41.543C125.953 40.6836 127.359 39.668 128.727 38.4961C130.133 37.2852 131.422 36.0352 132.594 34.7461C133.805 33.457 134.801 32.3438 135.582 31.4062C135.855 31.0938 136.129 30.918 136.402 30.8789C136.715 30.8008 136.949 30.8398 137.105 30.9961C137.301 31.1133 137.398 31.3477 137.398 31.6992C137.398 32.0117 137.262 32.3828 136.988 32.8125ZM121.988 23.7891C121.52 23.7891 120.953 24.0234 120.289 24.4922C119.664 24.9609 119.039 25.6445 118.414 26.543C117.789 27.4023 117.203 28.4766 116.656 29.7656C116.109 31.0156 115.699 32.4609 115.426 34.1016C115.895 33.75 116.402 33.3984 116.949 33.0469C117.496 32.6562 118.043 32.2461 118.59 31.8164C120.27 30.5273 121.441 29.3945 122.105 28.418C122.77 27.4414 123.141 26.6016 123.219 25.8984C123.297 25.1562 123.219 24.6289 122.984 24.3164C122.75 23.9648 122.418 23.7891 121.988 23.7891ZM151.402 33.8086C151.207 35.0195 151.012 36.1719 150.816 37.2656C150.66 38.3594 150.562 39.2383 150.523 39.9023C150.484 40.8789 150.66 41.582 151.051 42.0117C151.441 42.4414 151.871 42.6562 152.34 42.6562C152.887 42.6562 153.551 42.3828 154.332 41.8359C155.152 41.2891 156.012 40.6055 156.91 39.7852C157.809 38.9648 158.707 38.0664 159.605 37.0898C160.504 36.1133 161.324 35.1953 162.066 34.3359C162.848 33.4375 163.492 32.6562 164 31.9922C164.547 31.3281 164.918 30.8984 165.113 30.7031C165.348 30.4688 165.582 30.332 165.816 30.293C166.09 30.2539 166.305 30.293 166.461 30.4102C166.617 30.5273 166.695 30.7422 166.695 31.0547C166.695 31.3672 166.539 31.7578 166.227 32.2266C165.758 32.9688 165.152 33.8477 164.41 34.8633C163.668 35.8398 162.848 36.8555 161.949 37.9102C161.051 38.9648 160.094 40 159.078 41.0156C158.102 42.0312 157.105 42.9297 156.09 43.7109C155.113 44.4922 154.156 45.1172 153.219 45.5859C152.32 46.0938 151.5 46.3477 150.758 46.3477C150.211 46.3477 149.684 46.1914 149.176 45.8789C148.707 45.5664 148.277 45.1562 147.887 44.6484C147.496 44.1406 147.184 43.5742 146.949 42.9492C146.754 42.3242 146.676 41.6992 146.715 41.0742C146.754 40.8008 146.812 40.332 146.891 39.668C145.25 41.5039 143.59 42.9688 141.91 44.0625C140.27 45.1172 138.688 45.6445 137.164 45.6445C136.617 45.6445 136.031 45.5078 135.406 45.2344C134.781 44.9609 134.215 44.5117 133.707 43.8867C133.238 43.2617 132.848 42.4414 132.535 41.4258C132.223 40.4102 132.105 39.1797 132.184 37.7344C132.301 35.4688 132.75 33.3203 133.531 31.2891C134.312 29.2578 135.289 27.5 136.461 26.0156C137.672 24.4922 139.02 23.3008 140.504 22.4414C142.027 21.543 143.551 21.0938 145.074 21.0938C145.738 21.0938 146.344 21.2695 146.891 21.6211C147.438 21.9336 147.906 22.3633 148.297 22.9102C148.688 23.418 149 23.9844 149.234 24.6094C149.508 25.2344 149.703 25.8203 149.82 26.3672C150.094 25.2344 150.348 24.1211 150.582 23.0273C150.816 21.9336 151.051 20.8984 151.285 19.9219C151.676 18.4766 152.086 16.9141 152.516 15.2344C152.906 13.7891 153.355 12.1289 153.863 10.2539C154.371 8.37891 154.938 6.40625 155.562 4.33594C155.953 4.02344 156.324 3.78906 156.676 3.63281C157.027 3.47656 157.359 3.35938 157.672 3.28125C158.023 3.16406 158.355 3.10547 158.668 3.10547C159.059 3.10547 159.41 3.16406 159.723 3.28125C160.035 3.35938 160.289 3.61328 160.484 4.04297C160.719 4.43359 160.875 5.03906 160.953 5.85938C161.031 6.67969 161.031 7.79297 160.953 9.19922C160.875 10.918 160.562 12.793 160.016 14.8242C159.508 16.8555 158.824 18.9648 157.965 21.1523C157.105 23.3008 156.109 25.4688 154.977 27.6562C153.883 29.8047 152.691 31.8555 151.402 33.8086ZM147.945 34.5703C148.102 33.8281 148.238 33.0859 148.355 32.3438C148.512 31.6016 148.688 30.8398 148.883 30.0586C148.805 30.0977 148.727 30.1367 148.648 30.1758C148.609 30.2148 148.551 30.2539 148.473 30.293C148.043 30.4883 147.75 30.4883 147.594 30.293C147.438 30.0586 147.359 29.707 147.359 29.2383C147.359 29.0039 147.34 28.5938 147.301 28.0078C147.262 27.3828 147.145 26.7578 146.949 26.1328C146.793 25.4688 146.539 24.9023 146.188 24.4336C145.836 23.9258 145.348 23.6719 144.723 23.6719C143.824 23.6719 142.906 24.1406 141.969 25.0781C141.031 25.9766 140.152 27.0898 139.332 28.418C138.512 29.707 137.828 31.0938 137.281 32.5781C136.734 34.0625 136.422 35.3906 136.344 36.5625C136.266 38.4375 136.5 39.7852 137.047 40.6055C137.594 41.4258 138.336 41.8359 139.273 41.8359C139.977 41.8359 140.738 41.5625 141.559 41.0156C142.418 40.4688 143.238 39.8047 144.02 39.0234C144.84 38.2422 145.582 37.4414 146.246 36.6211C146.949 35.8008 147.516 35.1172 147.945 34.5703Z" fill="#3A3A3A"/>
</svg>
